<?xml version="1.0" encoding="UTF-8" standalone="no"?><!DOCTYPE svg PUBLIC "-//W3C//DTD SVG 1.1//EN" "http://www.w3.org/Graphics/SVG/1.1/DTD/svg11.dtd"><svg width="100%" height="100%" viewBox="0 0 264 260" version="1.1" xmlns="http://www.w3.org/2000/svg" xmlns:xlink="http://www.w3.org/1999/xlink" xml:space="preserve" xmlns:serif="http://www.serif.com/" style="fill-rule:evenodd;clip-rule:evenodd;stroke-linejoin:round;stroke-miterlimit:2;"><g><path d="M117.345,1.413c-1.4,0.7 -4.9,1.4 -7.9,1.4c-7.3,-0 -18.6,3.2 -29.8,8.5c-9.6,4.5 -25.2,14.6 -29.3,19c-3.1,3.3 -4.6,3.2 -2.2,-0.3c2.8,-3.9 6.4,-11.3 5.8,-11.9c-0.2,-0.3 -1.1,0.8 -2,2.4c-0.8,1.5 -5.3,6.6 -10,11.2c-9.7,9.5 -19.7,23.7 -25.1,35.5c-4.4,9.7 -8.5,23.5 -8.5,28.7c0,5.2 -1.5,5.7 -3.3,1.1c-1.7,-4.2 -5.3,-9.3 -4,-5.8c0.5,1.4 0.3,1.7 -0.6,1.2c-0.8,-0.5 -0.5,0.6 0.5,2.5c1.5,2.8 1.9,6.9 2.5,24.4c0.4,14 1.2,23.7 2.3,29c3.3,15.4 11.9,33.4 22.1,46.4c2.5,3.1 4.5,6 4.5,6.4c0,0.4 -2.4,0.5 -5.3,0.2c-5.1,-0.6 -5.1,-0.6 -2.2,0.9l3,1.4l-3,0.2c-2.8,0.1 -2.8,0.2 1.4,1.7c3,1.1 7.6,4.6 14.6,11.3c11.9,11.3 17.8,15.8 29,22.3c9,5.2 26.2,11.3 34.8,12.3c3.1,0.4 5.7,0.9 5.7,1.2c0,0.3 -1.2,1.8 -2.7,3.4c-3.4,3.6 -2.4,4.6 2.4,2.2c3,-1.4 7.4,-2 20.3,-2.5c17.7,-0.8 28,-2.5 39.4,-6.6c9.4,-3.3 21.5,-9.7 28.7,-15c3.3,-2.4 6.1,-4.3 6.4,-4.3c0.2,-0 0.2,1.5 -0.2,3.2c-0.8,4.4 1,2.6 2.7,-2.6c0.8,-2.5 4.6,-7.4 10.7,-14c5.1,-5.5 11.6,-13.3 14.2,-17.1c8.9,-12.9 17.8,-32.7 16.5,-36.8c-0.3,-1.1 -0.2,-1.7 0.2,-1.4c0.5,0.3 0.9,-1.1 1,-3.1c0,-2.1 0.6,-8.2 1.3,-13.7c1.2,-9.3 0.9,-26.1 -0.6,-32.3c-0.3,-1.3 -0.1,-2.2 0.6,-2.2c0.6,-0 1.1,0.6 1.1,1.4c0,2.1 4.3,6.8 8.1,9l3.4,1.9l-2.4,-2.6c-2.5,-2.7 -1.7,-3.8 0.9,-1.5c0.8,0.7 -0.6,-1 -3.2,-3.8c-3.7,-4.1 -4.8,-6.3 -5.8,-11c-2.8,-13.2 -12.4,-35.5 -18.6,-43c-1.6,-1.9 -1.2,-0.8 1.1,3.1c2,3.3 3.3,6.5 3.1,7.2c-0.3,0.7 -0.1,1.5 0.5,1.9c0.6,0.3 0.8,1.3 0.5,2.1c-0.3,0.8 0,2.6 0.8,4.1c3.1,6.2 2.4,7.2 -0.9,1.2c-4.8,-8.9 -11,-17 -20.1,-26.2c-4.3,-4.3 -7.3,-7.8 -6.8,-7.8c0.6,-0 1.4,0.4 1.9,0.9c1.4,1.3 14.4,6.1 16.6,6.1c1,-0 2.2,0.7 2.7,1.6c0.6,1.1 2.8,1.8 6.3,2.2l5.4,0.5l-9.9,-5.2c-5.4,-2.8 -14.9,-8.7 -21,-13c-6.1,-4.3 -13.8,-9.2 -17.1,-10.9c-13.4,-6.7 -32.4,-12 -51.2,-14.3c-5.7,-0.7 -10.3,-1.5 -10.3,-1.8c0,-0.4 4,-1.2 8.8,-1.9c7.2,-0.9 10.5,-0.9 18.3,0.3c9.6,1.4 15.4,3 17.7,4.8c0.7,0.6 1.2,0.6 1.2,-0c0,-1.4 -3.7,-2.9 -14.7,-5.8c-5.4,-1.4 -10.6,-3 -11.6,-3.6c-2.2,-1.2 -16.8,-1.4 -30.1,-0.4c-10.5,0.8 -10.6,0.7 -6.8,-3.8c1.7,-2 1.6,-2 -1.8,-0.1Zm31.1,22.9c32.7,6.1 59,25.2 74,53.8c11.1,21.2 14.2,42.4 9.9,66.5c-4.7,26.2 -16.6,46.1 -37.5,62.8c-31.1,25 -73.8,29.3 -109,11.1c-9.7,-5.1 -22.1,-14.3 -26.9,-20c-5.9,-7 -4,-3.4 2.4,4.7c11.4,14.3 21.7,20 45.7,25.1c8.7,1.8 18,3.6 20.6,4c2.7,0.3 4.7,0.9 4.4,1.1c-0.3,0.3 -5.8,-0.2 -12.3,-1c-6.5,-0.9 -11.9,-1.4 -12.1,-1.2c-0.7,0.7 15.6,3.6 22.7,4.1c5.5,0.4 7,0.3 5.5,-0.5c-1.5,-0.8 -1,-0.9 2.5,-0.5c2.5,0.3 8,0.6 12.3,0.6c4.2,0.1 7.5,0.4 7.2,0.9c-0.6,1 -10.8,2.8 -21,3.6c-15.9,1.3 -39.1,-3.9 -56.2,-12.5c-9.9,-4.9 -24.7,-15.9 -29,-21.5c-17.6,-22.6 -22,-29.9 -26.6,-43.6c-9.4,-28.1 -6.8,-59.9 6.9,-87.2c3.8,-7.5 12.6,-20.2 16,-22.8c1,-0.8 0.4,0.5 -1.5,3c-10.1,13.6 -17.7,28.8 -21.1,41.9c-1.1,4.5 -2.3,12.5 -2.5,17.9l-0.5,9.7l2.5,-13.5c4.6,-25.4 6.2,-27.9 2.4,-3.7c-4.1,26.2 -2,41 8.4,58c3.5,5.8 4.5,6.1 1.6,0.6c-3.4,-6.8 -7,-22.5 -7.6,-33.9c-1.9,-35.7 15.6,-71 45.1,-90.9c22.6,-15.3 48.8,-21.1 73.7,-16.6Zm-85.2,13.8c-0.2,0.2 -2.2,1.6 -4.4,3.1l-4,2.8l3.9,-3.6c2.2,-2 4.2,-3.4 4.4,-3.1c0.3,0.3 0.3,0.6 0.1,0.8Zm182.7,86.5c-0.5,11.8 -2.4,25.8 -3.2,24.9c-0.3,-0.2 0,-4.4 0.6,-9.3c0.5,-4.9 1,-15.2 1.1,-22.9c0.1,-11.6 0.3,-13.2 1.1,-9.5c0.5,2.5 0.7,10 0.4,16.8Z" style="fill:#fff;fill-rule:nonzero;"/><path d="M113.645,26.213c-40.7,7.7 -73.1,40.3 -80.8,81.1c-2.4,12.7 -1.6,32.6 1.8,45c8.4,30.4 27.6,53.2 55.9,66.5c14.3,6.6 22.9,8.4 41.3,8.5c13.7,-0 17.2,-0.3 24.5,-2.3c36.8,-10 63.2,-36.4 73.1,-73.2c2,-7.3 2.3,-11 2.4,-25.5c0,-19.9 -1.6,-27.6 -9,-43.4c-7.7,-16.1 -20.1,-31 -33.7,-40.2c-8.8,-6 -23.1,-12.5 -32.8,-15c-10.9,-2.7 -32.3,-3.4 -42.7,-1.5Zm44.2,6.1c31.7,9.4 55.3,32.1 66,63.6c5.3,15.4 5.9,38.3 1.6,54.9c-2.8,10.7 -9.6,25.4 -11.2,24.4c-0.8,-0.4 -0.9,-0.3 -0.5,0.5c0.7,1.1 -3.7,9.1 -5,9.1c-0.3,-0 -0.2,-0.5 0.2,-1.2c0.4,-0.7 0.3,-0.8 -0.5,-0.4c-0.6,0.4 -0.9,1.2 -0.5,1.7c0.8,1.3 -5.6,9 -6.8,8.3c-0.6,-0.4 -0.8,-0.2 -0.5,0.3c0.7,1.2 -7.8,8.9 -15.5,14.2c-7.4,4.9 -20.4,10.8 -29.8,13.3c-7.2,1.9 -10.9,2.3 -24,2.3c-13.1,-0 -16.7,-0.4 -23.5,-2.3c-34.1,-9.8 -58.8,-34.3 -69.2,-68.7c-2.5,-8.3 -2.7,-10.3 -2.7,-26c0,-15.6 0.3,-17.8 2.8,-26c9.7,-32.3 32.8,-56.5 63.8,-66.9c11.3,-3.8 16.8,-4.5 32.3,-4.1c11.6,0.2 15.6,0.8 23,3Z" style="fill:#fff;fill-rule:nonzero;"/><path d="M121.445,31.013c-19,2 -37.5,10.2 -52.8,23.3c-4.9,4.2 -15.6,17.3 -17.9,21.8c-2,4 -1.3,3.2 6.1,-6.6c6.1,-8.3 18.2,-18.7 27.7,-23.9c14.9,-8.3 29.4,-11.9 46.8,-11.9c46.2,0.1 84.7,33.5 93,80.7c1.9,10.7 0.8,28.8 -2.3,39.4c-1.4,4.7 -2.4,8.6 -2.2,8.8c0.5,0.5 4,-11 5.6,-18.3c0.7,-3.3 1.3,-11.6 1.3,-18.5c0,-19.4 -5,-35.8 -15.7,-52.4c-19.5,-29.8 -54.2,-46.2 -89.6,-42.4Z" style="fill:#fff;fill-rule:nonzero;"/><path d="M46.845,82.913c-0.9,1.7 -1.5,3.3 -1.3,3.5c0.3,0.2 1.2,-1.2 2.1,-3.1c2.1,-4.3 1.3,-4.7 -0.8,-0.4Z" style="fill:#fff;fill-rule:nonzero;"/><path d="M217.545,166.313c-1.7,3.7 -1.4,4.5 0.4,1.2c0.9,-1.6 1.4,-3.1 1.1,-3.3c-0.2,-0.2 -0.9,0.7 -1.5,2.1Z" style="fill:#fff;fill-rule:nonzero;"/><path d="M203.345,189.313c-1.3,1.4 -1.9,2.5 -1.4,2.5c0.8,-0.1 5,-5 4.1,-5c-0.2,-0 -1.4,1.1 -2.7,2.5Z" style="fill:#fff;fill-rule:nonzero;"/><path d="M33.645,168.313c0.9,1.6 2.3,3.9 3.2,5c0.9,1.1 0.7,0.2 -0.6,-2c-2.7,-4.9 -4.7,-7.2 -2.6,-3Z" style="fill:#fff;fill-rule:nonzero;"/></g></svg>